<svg width="1024" height="1024" viewBox="0 0 1024 1024" fill="none" xmlns="http://www.w3.org/2000/svg">
<g clip-path="url(#clip0_2_580)">
<path d="M929.649 987C920.604 987 913.124 979.695 913.124 970.477V637.071C913.124 628.027 920.43 620.548 929.649 620.548C938.868 620.548 946.174 627.853 946.174 637.071V970.651C946 979.695 938.694 987 929.649 987Z" fill="black"/>
<path d="M825.28 913.953C816.235 913.953 808.755 906.648 808.755 897.431V564.024C808.755 554.98 816.061 547.502 825.28 547.502C834.499 547.502 841.805 554.806 841.805 564.024V897.605C841.631 906.648 834.325 913.953 825.28 913.953Z" fill="black"/>
<path d="M720.737 840.906C711.692 840.906 704.212 833.602 704.212 824.384V490.977C704.212 481.933 711.518 474.455 720.737 474.455C729.957 474.455 737.263 481.76 737.263 490.977V824.558C737.263 833.602 729.957 840.906 720.737 840.906Z" fill="black"/>
<path d="M616.369 767.86C607.323 767.86 599.844 760.555 599.844 751.337V417.757C599.844 408.713 607.149 401.234 616.369 401.234C625.588 401.234 632.894 408.539 632.894 417.757V751.337C632.894 760.381 625.588 767.86 616.369 767.86Z" fill="black"/>
<path d="M512 694.813C502.955 694.813 495.475 687.508 495.475 678.29V344.71C495.475 335.666 502.781 328.187 512 328.187C521.219 328.187 528.525 335.492 528.525 344.71V678.29C528.525 687.334 521.045 694.813 512 694.813Z" fill="black"/>
<path d="M512 694.813C502.955 694.813 495.475 687.508 495.475 678.29V344.71C495.475 335.666 502.781 328.187 512 328.187C521.219 328.187 528.525 335.492 528.525 344.71V678.29C528.525 687.334 521.045 694.813 512 694.813Z" fill="black"/>
<path d="M407.631 366.102C398.586 366.102 391.106 358.797 391.106 349.58V271.663C391.106 262.619 398.412 255.14 407.631 255.14C416.851 255.14 424.156 262.445 424.156 271.663V349.58C424.156 358.797 416.677 366.102 407.631 366.102Z" fill="black"/>
<path d="M303.262 431.844C294.217 431.844 286.737 424.539 286.737 415.322V198.616C286.737 189.572 294.043 182.094 303.262 182.094C312.308 182.094 319.788 189.398 319.788 198.616V415.496C319.788 424.539 312.308 431.844 303.262 431.844Z" fill="black"/>
<path d="M198.894 475.498C189.849 475.498 182.369 468.194 182.369 459.15V125.569C182.369 116.525 189.849 109.047 198.894 109.047C207.939 109.047 215.419 116.352 215.419 125.569V459.15C215.245 468.194 207.939 475.498 198.894 475.498Z" fill="black"/>
<path d="M94.525 402.451C85.3058 402.451 78 395.147 78 385.929V52.5225C78 43.3047 85.3058 36 94.525 36C103.744 36 111.05 43.3047 111.05 52.5225V386.103C110.876 395.147 103.57 402.451 94.525 402.451Z" fill="black"/>
<path d="M824.584 476.02C819.366 476.02 814.321 473.585 811.016 469.063C805.798 461.585 807.537 451.323 815.017 446.106L913.124 377.407V84.0022L626.632 284.707C619.152 289.925 608.889 288.185 603.67 280.707C598.452 273.228 600.192 262.967 607.671 257.749L920.082 38.9566C925.126 35.4782 931.736 34.9565 937.129 37.9131C942.521 40.6959 946 46.4352 946 52.5225V386.103C946 391.494 943.391 396.538 939.042 399.669L833.977 473.237C831.194 475.15 827.715 476.02 824.584 476.02Z" fill="black"/>
<path d="M94.525 987C91.9158 987 89.3066 986.304 86.8713 985.087C81.479 982.304 78 976.739 78 970.651V637.071C78 631.679 80.6092 626.636 84.9579 623.505L397.716 404.713C405.196 399.495 415.459 401.234 420.677 408.713C425.896 416.191 424.156 426.453 416.677 431.67L110.876 645.593V938.998L397.716 738.119C405.196 732.901 415.459 734.641 420.677 742.119C425.896 749.598 424.156 759.859 416.677 765.077L103.918 984.043C101.135 986.13 97.8301 987 94.525 987Z" fill="black"/>
</g>
<g clip-path="url(#clip1_2_580)">
<path d="M929.649 987C920.604 987 913.124 979.695 913.124 970.477V637.071C913.124 628.027 920.43 620.548 929.649 620.548C938.868 620.548 946.174 627.853 946.174 637.071V970.651C946 979.695 938.694 987 929.649 987Z" fill="black"/>
<path d="M825.28 913.953C816.235 913.953 808.755 906.648 808.755 897.431V564.024C808.755 554.98 816.061 547.502 825.28 547.502C834.499 547.502 841.805 554.806 841.805 564.024V897.605C841.631 906.648 834.325 913.953 825.28 913.953Z" fill="black"/>
<path d="M720.737 840.906C711.692 840.906 704.212 833.602 704.212 824.384V490.977C704.212 481.933 711.518 474.455 720.737 474.455C729.957 474.455 737.263 481.76 737.263 490.977V824.558C737.263 833.602 729.957 840.906 720.737 840.906Z" fill="black"/>
<path d="M616.369 767.86C607.323 767.86 599.844 760.555 599.844 751.337V417.757C599.844 408.713 607.149 401.234 616.369 401.234C625.588 401.234 632.894 408.539 632.894 417.757V751.337C632.894 760.381 625.588 767.86 616.369 767.86Z" fill="black"/>
<path d="M512 694.813C502.955 694.813 495.475 687.508 495.475 678.29V344.71C495.475 335.666 502.781 328.187 512 328.187C521.219 328.187 528.525 335.492 528.525 344.71V678.29C528.525 687.334 521.045 694.813 512 694.813Z" fill="black"/>
<path d="M512 694.813C502.955 694.813 495.475 687.508 495.475 678.29V344.71C495.475 335.666 502.781 328.187 512 328.187C521.219 328.187 528.525 335.492 528.525 344.71V678.29C528.525 687.334 521.045 694.813 512 694.813Z" fill="black"/>
<path d="M407.631 366.102C398.586 366.102 391.106 358.797 391.106 349.58V271.663C391.106 262.619 398.412 255.14 407.631 255.14C416.851 255.14 424.156 262.445 424.156 271.663V349.58C424.156 358.797 416.677 366.102 407.631 366.102Z" fill="black"/>
<path d="M303.262 431.844C294.217 431.844 286.737 424.539 286.737 415.322V198.616C286.737 189.572 294.043 182.094 303.262 182.094C312.308 182.094 319.788 189.398 319.788 198.616V415.496C319.788 424.539 312.308 431.844 303.262 431.844Z" fill="black"/>
<path d="M198.894 475.498C189.849 475.498 182.369 468.194 182.369 459.15V125.569C182.369 116.525 189.849 109.047 198.894 109.047C207.939 109.047 215.419 116.352 215.419 125.569V459.15C215.245 468.194 207.939 475.498 198.894 475.498Z" fill="black"/>
<path d="M94.525 402.451C85.3058 402.451 78 395.147 78 385.929V52.5225C78 43.3047 85.3058 36 94.525 36C103.744 36 111.05 43.3047 111.05 52.5225V386.103C110.876 395.147 103.57 402.451 94.525 402.451Z" fill="black"/>
<path d="M824.584 476.02C819.366 476.02 814.321 473.585 811.016 469.063C805.798 461.585 807.537 451.323 815.017 446.106L913.124 377.407V84.0022L626.632 284.707C619.152 289.925 608.889 288.185 603.67 280.707C598.452 273.228 600.192 262.967 607.671 257.749L920.082 38.9566C925.126 35.4782 931.736 34.9565 937.129 37.9131C942.521 40.6959 946 46.4352 946 52.5225V386.103C946 391.494 943.391 396.538 939.042 399.669L833.977 473.237C831.194 475.15 827.715 476.02 824.584 476.02Z" fill="black"/>
<path d="M94.525 987C91.9158 987 89.3066 986.304 86.8713 985.087C81.479 982.304 78 976.739 78 970.651V637.071C78 631.679 80.6092 626.636 84.9579 623.505L397.716 404.713C405.196 399.495 415.459 401.234 420.677 408.713C425.896 416.191 424.156 426.453 416.677 431.67L110.876 645.593V938.998L397.716 738.119C405.196 732.901 415.459 734.641 420.677 742.119C425.896 749.598 424.156 759.859 416.677 765.077L103.918 984.043C101.135 986.13 97.8301 987 94.525 987Z" fill="black"/>
</g>
<defs>
<clipPath id="clip0_2_580">
<rect width="868" height="951" fill="white" transform="translate(78 36)"/>
</clipPath>
<clipPath id="clip1_2_580">
<rect width="868" height="951" fill="white" transform="translate(78 36)"/>
</clipPath>
</defs>
</svg>
