<svg width="180" height="180" viewBox="0 0 180 180" fill="none" xmlns="http://www.w3.org/2000/svg">
<g clip-path="url(#clip0_91_2)">
<rect width="180" height="180" rx="30" fill="#F8B334"/>
<g clip-path="url(#clip1_91_2)">
<path d="M159.287 169C157.787 169 156.546 167.786 156.546 166.255V110.862C156.546 109.36 157.758 108.117 159.287 108.117C160.817 108.117 162.029 109.331 162.029 110.862V166.284C162 167.786 160.788 169 159.287 169Z" fill="black"/>
<path d="M141.972 156.864C140.472 156.864 139.231 155.65 139.231 154.119V98.7264C139.231 97.2239 140.443 95.9813 141.972 95.9813C143.502 95.9813 144.714 97.195 144.714 98.7264V154.148C144.685 155.65 143.473 156.864 141.972 156.864Z" fill="black"/>
<path d="M124.629 144.728C123.129 144.728 121.888 143.514 121.888 141.983V86.5903C121.888 85.0878 123.1 83.8453 124.629 83.8453C126.159 83.8453 127.371 85.0589 127.371 86.5903V142.012C127.371 143.514 126.159 144.728 124.629 144.728Z" fill="black"/>
<path d="M107.314 132.592C105.814 132.592 104.573 131.378 104.573 129.847V74.4254C104.573 72.9228 105.785 71.6803 107.314 71.6803C108.844 71.6803 110.056 72.8939 110.056 74.4254V129.847C110.056 131.349 108.844 132.592 107.314 132.592Z" fill="black"/>
<path d="M89.9998 120.456C88.4992 120.456 87.2583 119.242 87.2583 117.711V62.2893C87.2583 60.7868 88.4703 59.5443 89.9998 59.5443C91.5292 59.5443 92.7413 60.7579 92.7413 62.2893V117.711C92.7413 119.213 91.5004 120.456 89.9998 120.456Z" fill="black"/>
<path d="M89.9998 120.456C88.4992 120.456 87.2583 119.242 87.2583 117.711V62.2893C87.2583 60.7868 88.4703 59.5443 89.9998 59.5443C91.5292 59.5443 92.7413 60.7579 92.7413 62.2893V117.711C92.7413 119.213 91.5004 120.456 89.9998 120.456Z" fill="black"/>
<path d="M72.6853 65.8435C71.1847 65.8435 69.9438 64.6298 69.9438 63.0984V50.1533C69.9438 48.6507 71.1559 47.4082 72.6853 47.4082C74.2148 47.4082 75.4268 48.6218 75.4268 50.1533V63.0984C75.4268 64.6298 74.1859 65.8435 72.6853 65.8435Z" fill="black"/>
<path d="M55.3706 76.7659C53.87 76.7659 52.6292 75.5523 52.6292 74.0208V38.0172C52.6292 36.5146 53.8412 35.2721 55.3706 35.2721C56.8712 35.2721 58.1121 36.4857 58.1121 38.0172V74.0497C58.1121 75.5523 56.8712 76.7659 55.3706 76.7659Z" fill="black"/>
<path d="M38.0562 84.0186C36.5556 84.0186 35.3147 82.805 35.3147 81.3025V25.8811C35.3147 24.3786 36.5556 23.1361 38.0562 23.1361C39.5568 23.1361 40.7977 24.3497 40.7977 25.8811V81.3025C40.7688 82.805 39.5568 84.0186 38.0562 84.0186Z" fill="black"/>
<path d="M20.7415 71.8826C19.212 71.8826 18 70.669 18 69.1375V13.7451C18 12.2136 19.212 11 20.7415 11C22.2709 11 23.483 12.2136 23.483 13.7451V69.1664C23.4541 70.669 22.2421 71.8826 20.7415 71.8826Z" fill="black"/>
<path d="M141.857 84.1053C140.992 84.1053 140.155 83.7008 139.607 82.9495C138.741 81.707 139.029 80.0022 140.27 79.1353L156.546 67.7216V18.9751L109.017 52.3204C107.776 53.1873 106.074 52.8983 105.208 51.6558C104.342 50.4133 104.631 48.7085 105.872 47.8416L157.7 11.4912C158.537 10.9133 159.634 10.8266 160.528 11.3179C161.423 11.7802 162 12.7337 162 13.7451V69.1664C162 70.0622 161.567 70.9001 160.846 71.4203L143.416 83.643C142.954 83.9609 142.377 84.1053 141.857 84.1053Z" fill="black"/>
<path d="M20.7415 169C20.3086 169 19.8758 168.884 19.4717 168.682C18.5772 168.22 18 167.295 18 166.284V110.862C18 109.967 18.4329 109.129 19.1543 108.609L71.0405 72.2582C72.2814 71.3914 73.984 71.6803 74.8497 72.9228C75.7154 74.1653 75.4268 75.8702 74.186 76.737L23.4541 112.278V161.025L71.0405 127.651C72.2814 126.784 73.984 127.073 74.8497 128.315C75.7154 129.558 75.4268 131.263 74.186 132.129L22.2998 168.509C21.8381 168.856 21.2898 169 20.7415 169Z" fill="black"/>
</g>
</g>
<defs>
<clipPath id="clip0_91_2">
<rect width="180" height="180" fill="white"/>
</clipPath>
<clipPath id="clip1_91_2">
<rect width="144" height="158" fill="white" transform="translate(18 11)"/>
</clipPath>
</defs>
</svg>
