<svg width="900" height="256" viewBox="0 0 900 256" fill="none" xmlns="http://www.w3.org/2000/svg">
<g clip-path="url(#clip0_2_87)">
<path d="M74.5038 161.214C69.5113 161.214 65.4256 160.463 62.2365 158.963C59.0474 157.463 56.7447 154.96 55.3285 151.453C53.9122 147.945 53.2398 143.323 53.3315 137.586L53.8511 105.222H43V94.9441L54.3605 92.3797L56.6836 73.1111H69.2056V92.3797H86.761V105.222H69.2056V137.455C69.2056 139.685 69.4196 141.499 69.8475 142.918C70.2755 144.337 70.897 145.442 71.7223 146.253C72.5374 147.064 73.4238 147.641 74.3714 147.986C75.3189 148.331 76.3072 148.543 77.3363 148.625L85.9866 149.527V161.214H74.5038Z" fill="white"/>
<path d="M126.793 161.862C119.304 161.862 113.344 160.838 108.911 158.781C104.479 156.723 101.27 153.145 99.2932 148.057C97.3064 142.958 96.3181 135.884 96.3181 126.802C96.3181 117.558 97.2657 110.381 99.1608 105.293C101.046 100.195 104.194 96.6165 108.585 94.569C112.977 92.5114 118.917 91.4877 126.406 91.4877C133.039 91.4877 138.347 92.1465 142.351 93.4743C146.355 94.8022 149.28 97.1537 151.124 100.539C152.968 103.925 153.895 108.699 153.895 114.861C153.895 119.23 153.039 122.717 151.317 125.322C149.595 127.937 147.12 129.802 143.9 130.907C140.67 132.022 136.859 132.579 132.478 132.579H112.202C112.376 136.867 112.956 140.262 113.945 142.786C114.933 145.31 116.736 147.135 119.365 148.249C121.984 149.364 125.845 149.922 130.919 149.922H151.837V159.298C148.301 159.987 144.583 160.585 140.67 161.092C136.747 161.599 132.132 161.862 126.793 161.862ZM112.07 122.94H130.919C133.935 122.94 136.146 122.362 137.562 121.207C138.989 120.051 139.692 117.933 139.692 114.851C139.692 111.851 139.264 109.499 138.398 107.786C137.532 106.073 136.116 104.857 134.139 104.127C132.152 103.398 129.574 103.033 126.395 103.033C122.778 103.033 119.946 103.59 117.878 104.705C115.809 105.82 114.332 107.807 113.425 110.675C112.518 113.544 112.07 117.639 112.07 122.94Z" fill="white"/>
<path d="M188.639 161.467C184.074 161.467 180.264 160.697 177.217 159.156C174.161 157.615 171.878 155.223 170.37 151.969C168.862 148.716 168.119 144.388 168.119 138.995V63.2183H184.125V136.816C184.125 139.897 184.451 142.3 185.093 144.002C185.735 145.715 186.662 146.932 187.865 147.662C189.067 148.391 190.534 148.878 192.256 149.131L198.064 149.902V161.457H188.639V161.467Z" fill="white"/>
<path d="M235.884 161.862C228.396 161.862 222.435 160.838 218.003 158.781C213.571 156.723 210.362 153.145 208.385 148.057C206.398 142.958 205.42 135.884 205.42 126.802C205.42 117.558 206.367 110.381 208.263 105.293C210.158 100.195 213.296 96.6165 217.687 94.569C222.079 92.5114 228.019 91.4877 235.507 91.4877C242.13 91.4877 247.449 92.1465 251.453 93.4743C255.457 94.8022 258.381 97.1537 260.236 100.539C262.08 103.925 263.007 108.699 263.007 114.861C263.007 119.23 262.141 122.717 260.429 125.322C258.707 127.937 256.232 129.802 253.002 130.907C249.772 132.022 245.961 132.579 241.58 132.579H221.314C221.488 136.867 222.068 140.262 223.057 142.786C224.045 145.31 225.859 147.135 228.477 148.249C231.096 149.364 234.947 149.922 240.031 149.922H260.949V159.298C257.413 159.987 253.695 160.585 249.782 161.092C245.849 161.599 241.223 161.862 235.884 161.862ZM221.172 122.94H240.021C243.037 122.94 245.248 122.362 246.674 121.207C248.091 120.051 248.804 117.933 248.804 114.851C248.804 111.851 248.366 109.499 247.51 107.786C246.654 106.073 245.228 104.857 243.251 104.127C241.274 103.398 238.686 103.033 235.507 103.033C231.89 103.033 229.048 103.59 226.99 104.705C224.921 105.82 223.444 107.807 222.537 110.675C221.62 113.544 221.172 117.639 221.172 122.94Z" fill="white"/>
<path d="M277.2 161.213V92.3695H290.242L293.217 99.556C296.396 97.326 299.911 95.3799 303.742 93.7075C307.573 92.035 312.107 91.2039 317.364 91.2039C321.664 91.2039 325.302 92.1262 328.277 93.9609C331.252 95.8056 333.463 98.1775 334.93 101.087C336.907 99.5458 339.301 98.0254 342.093 96.5253C344.895 95.0251 347.88 93.7683 351.069 92.7344C354.248 91.7107 357.396 91.1937 360.494 91.1937C365.833 91.1937 370.112 92.2479 373.342 94.346C376.572 96.4442 378.874 99.3532 380.25 103.073C381.625 106.803 382.318 111.101 382.318 115.976V161.193H366.312V117.294C366.312 114.811 365.833 112.713 364.895 111C363.948 109.287 362.633 107.959 360.952 107.016C359.271 106.073 357.233 105.607 354.819 105.607C351.721 105.607 348.603 106.205 345.455 107.401C342.317 108.607 339.454 110.057 336.866 111.77C337.202 112.631 337.447 113.564 337.569 114.598C337.701 115.622 337.762 116.655 337.762 117.679V161.224H321.756V117.294C321.756 114.811 321.277 112.713 320.329 111C319.382 109.287 318.078 107.959 316.397 107.016C314.715 106.073 312.678 105.607 310.263 105.607C308.021 105.607 305.943 105.82 303.997 106.246C302.061 106.671 300.237 107.32 298.515 108.172C296.793 109.023 295.031 110.057 293.217 111.253V161.213H277.2Z" fill="white"/>
<path d="M426.446 161.862C418.957 161.862 412.997 160.838 408.564 158.781C404.132 156.723 400.923 153.145 398.946 148.057C396.959 142.958 395.981 135.884 395.981 126.802C395.981 117.558 396.929 110.381 398.824 105.293C400.719 100.195 403.857 96.6165 408.249 94.569C412.64 92.5114 418.58 91.4877 426.069 91.4877C432.691 91.4877 438.01 92.1465 442.014 93.4743C446.018 94.8022 448.943 97.1537 450.797 100.539C452.641 103.925 453.568 108.699 453.568 114.861C453.568 119.23 452.702 122.717 450.991 125.322C449.269 127.937 446.793 129.802 443.563 130.907C440.333 132.022 436.522 132.579 432.141 132.579H411.876C412.049 136.867 412.63 140.262 413.618 142.786C414.606 145.31 416.42 147.135 419.038 148.249C421.657 149.364 425.508 149.922 430.593 149.922H451.51V159.298C447.975 159.987 444.256 160.585 440.343 161.092C436.431 161.599 431.785 161.862 426.446 161.862ZM411.733 122.94H430.582C433.598 122.94 435.809 122.362 437.236 121.207C438.652 120.051 439.365 117.933 439.365 114.851C439.365 111.851 438.927 109.499 438.071 107.786C437.215 106.073 435.789 104.857 433.812 104.127C431.836 103.398 429.248 103.033 426.069 103.033C422.452 103.033 419.609 103.59 417.551 104.705C415.483 105.82 414.005 107.807 413.098 110.675C412.181 113.544 411.733 117.639 411.733 122.94Z" fill="white"/>
<path d="M492.938 161.214C487.945 161.214 483.86 160.463 480.671 158.963C477.482 157.463 475.179 154.96 473.763 151.453C472.346 147.945 471.674 143.323 471.766 137.586L472.285 105.222H461.444V94.9441L472.805 92.3797L475.128 73.1111H487.65V92.3797H505.205V105.222H487.65V137.455C487.65 139.685 487.864 141.499 488.292 142.918C488.72 144.337 489.352 145.442 490.167 146.253C490.982 147.064 491.868 147.641 492.816 147.986C493.763 148.331 494.752 148.543 495.781 148.625L504.431 149.527V161.214H492.938Z" fill="white"/>
<path d="M516.953 161.213V92.3695H529.342L532.959 103.408C535.71 100.073 538.767 97.2449 542.129 94.9339C545.482 92.6229 549.486 91.4674 554.142 91.4674C555.09 91.4674 556.078 91.5282 557.107 91.66C558.136 91.7918 559.084 91.9843 559.95 92.2377V108.415C558.737 108.243 557.453 108.121 556.078 108.03C554.702 107.949 553.368 107.898 552.074 107.898C549.404 107.898 546.979 108.202 544.779 108.8C542.588 109.398 540.54 110.32 538.645 111.557C536.75 112.794 534.855 114.365 532.97 116.25V161.203H516.953V161.213Z" fill="white"/>
<path d="M591.708 191.652L599.707 161.213C596.354 161.213 593.318 160.575 590.608 159.288C587.898 158 585.595 156.074 583.7 153.51C581.805 150.946 580.256 147.641 579.054 143.617L564.851 92.3695H581.377L593.899 140.404C594.5 142.371 595.234 143.871 596.1 144.894C596.956 145.918 597.822 146.678 598.677 147.145C599.533 147.621 600.338 147.895 601.072 147.986C601.805 148.067 602.294 148.118 602.559 148.118L616.895 92.3796H633.156L610.955 178.941L604.76 191.662H591.708V191.652Z" fill="white"/>
<path d="M854.712 217.063C852.99 217.063 851.594 215.675 851.594 213.962V151.169C851.594 149.456 852.99 148.067 854.712 148.067C856.434 148.067 857.83 149.456 857.83 151.169V213.962C857.82 215.675 856.424 217.063 854.712 217.063Z" fill="white"/>
<path d="M834.956 203.309C833.234 203.309 831.838 201.92 831.838 200.207V137.414C831.838 135.701 833.234 134.313 834.956 134.313C836.678 134.313 838.074 135.701 838.074 137.414V200.207C838.074 201.92 836.678 203.309 834.956 203.309Z" fill="white"/>
<path d="M815.2 189.544C813.478 189.544 812.082 188.155 812.082 186.442V123.65C812.082 121.937 813.478 120.548 815.2 120.548C816.922 120.548 818.318 121.937 818.318 123.65V186.442C818.318 188.155 816.922 189.544 815.2 189.544Z" fill="white"/>
<path d="M795.444 175.789C793.722 175.789 792.326 174.401 792.326 172.688V109.895C792.326 108.182 793.722 106.793 795.444 106.793C797.166 106.793 798.561 108.182 798.561 109.895V172.688C798.561 174.401 797.166 175.789 795.444 175.789Z" fill="white"/>
<path d="M775.688 162.025C773.966 162.025 772.57 160.636 772.57 158.923V96.1302C772.57 94.4172 773.966 93.0286 775.688 93.0286C777.41 93.0286 778.805 94.4172 778.805 96.1302V158.923C778.805 160.636 777.41 162.025 775.688 162.025Z" fill="white"/>
<path d="M775.688 162.025C773.966 162.025 772.57 160.636 772.57 158.923V96.1302C772.57 94.4172 773.966 93.0286 775.688 93.0286C777.41 93.0286 778.805 94.4172 778.805 96.1302V158.923C778.805 160.636 777.41 162.025 775.688 162.025Z" fill="white"/>
<path d="M755.942 100.144C754.22 100.144 752.824 98.7553 752.824 97.0423V82.3754C752.824 80.6624 754.22 79.2738 755.942 79.2738C757.664 79.2738 759.06 80.6624 759.06 82.3754V97.0524C759.06 98.7553 757.664 100.144 755.942 100.144Z" fill="white"/>
<path d="M736.186 112.54C734.464 112.54 733.068 111.152 733.068 109.439V68.6108C733.068 66.8978 734.464 65.5092 736.186 65.5092C737.908 65.5092 739.303 66.8978 739.303 68.6108V109.429C739.303 111.152 737.908 112.54 736.186 112.54Z" fill="white"/>
<path d="M716.43 120.751C714.708 120.751 713.312 119.362 713.312 117.649V54.8563C713.312 53.1433 714.708 51.7546 716.43 51.7546C718.151 51.7546 719.547 53.1433 719.547 54.8563V117.649C719.547 119.362 718.151 120.751 716.43 120.751Z" fill="white"/>
<path d="M696.684 106.996C694.962 106.996 693.566 105.607 693.566 103.894V41.1016C693.566 39.3886 694.962 38 696.684 38C698.406 38 699.801 39.3886 699.801 41.1016V103.894C699.791 105.607 698.395 106.996 696.684 106.996Z" fill="white"/>
<path d="M834.834 120.842C833.856 120.842 832.888 120.386 832.276 119.514C831.288 118.115 831.634 116.179 833.041 115.196L851.594 102.273V47.0515L797.369 84.8184C795.953 85.8015 794.017 85.4569 793.029 84.0581C792.041 82.6594 792.387 80.7234 793.793 79.7402L852.919 38.5575C853.877 37.8986 855.12 37.8176 856.139 38.3446C857.168 38.8818 857.82 39.936 857.82 41.0915V103.884C857.82 104.898 857.32 105.84 856.485 106.428L836.607 120.284C836.067 120.67 835.445 120.842 834.834 120.842Z" fill="white"/>
<path d="M696.684 217.063C696.195 217.063 695.695 216.952 695.247 216.708C694.218 216.171 693.566 215.117 693.566 213.962V151.169C693.566 150.155 694.065 149.213 694.89 148.635L754.077 107.412C755.483 106.428 757.429 106.773 758.418 108.172C759.406 109.571 759.06 111.507 757.654 112.49L699.801 152.78V208.012L754.087 170.204C755.493 169.221 757.44 169.566 758.428 170.965C759.416 172.363 759.07 174.299 757.664 175.282L698.477 216.506C697.937 216.871 697.305 217.063 696.684 217.063Z" fill="white"/>
</g>
<defs>
<clipPath id="clip0_2_87">
<rect width="814.82" height="179.063" fill="white" transform="translate(43 38)"/>
</clipPath>
</defs>
</svg>
