<svg width="256" height="256" viewBox="0 0 256 256" fill="none" xmlns="http://www.w3.org/2000/svg">
<g clip-path="url(#clip0_68_19)">
<path d="M246.521 80.1528L254.742 49.4427C256.017 44.6788 252.435 40 247.505 40H85.4824C80.3946 40 75.9381 43.4272 74.6146 48.3369L66.3939 79.047C65.1189 83.8109 68.701 88.4897 73.631 88.4897H119.215C124.146 88.4897 127.728 93.1686 126.453 97.9325L97.7953 204.962C96.5203 209.726 100.102 214.405 105.032 214.405H136.798C141.886 214.405 146.343 210.977 147.666 206.068L176.918 96.8264C178.23 91.9045 182.686 88.4897 187.786 88.4897H235.653C240.741 88.4897 245.198 85.0625 246.521 80.1528Z" fill="#F7B434"/>
<path d="M51.1303 80.1528L59.351 49.4427C60.626 44.6788 57.0439 40 52.1139 40H20.3482C15.2603 40 10.8039 43.4272 9.48032 48.3369L1.25957 79.047C-0.0154269 83.8109 3.56675 88.4897 8.49675 88.4897H40.2625C45.3503 88.4897 49.8068 85.0625 51.1303 80.1528Z" fill="#F7B434"/>
<path d="M100.382 102.964H68.6161C63.5282 102.964 59.0718 106.391 57.7482 111.301L49.5275 142.01C48.2525 146.774 51.8347 151.453 56.7647 151.453H88.5304C93.6182 151.453 98.0747 148.026 99.3982 143.116L107.619 112.406C108.894 107.642 105.312 102.964 100.382 102.964Z" fill="#F7B434"/>
</g>
<defs>
<clipPath id="clip0_68_19">
<rect width="255" height="175" fill="white" transform="translate(1 40)"/>
</clipPath>
</defs>
</svg>
