<svg width="256" height="64" viewBox="0 0 256 64" fill="none" xmlns="http://www.w3.org/2000/svg">
<g clip-path="url(#clip0_85_5)">
<path d="M20.5008 22.76V42.08C20.5008 42.9067 20.6741 43.4933 21.0208 43.84C21.3941 44.1867 22.0208 44.36 22.9008 44.36H25.6208L26.1408 47.76C25.6874 47.8933 25.1408 48.0133 24.5008 48.12C23.8608 48.2267 23.2341 48.2933 22.6208 48.32C22.0074 48.3733 21.4874 48.4 21.0608 48.4C19.3541 48.4 18.0208 47.9467 17.0608 47.04C16.1274 46.1067 15.6608 44.7733 15.6608 43.04V22.76H20.5008ZM26.3408 28.36V31.72H12.1808V28.56L16.0208 28.36H26.3408ZM38.6792 27.88C41.8526 27.88 44.1326 28.44 45.5192 29.56C46.9059 30.6533 47.6126 32.28 47.6392 34.44C47.6659 36.2267 47.2392 37.5867 46.3592 38.52C45.5059 39.4267 44.0792 39.88 42.0792 39.88H30.8792V36.88H40.7592C41.6659 36.88 42.2392 36.64 42.4792 36.16C42.7459 35.68 42.8792 35.0933 42.8792 34.4C42.8526 33.3067 42.5326 32.5467 41.9192 32.12C41.3326 31.6933 40.3192 31.48 38.8792 31.48C37.6259 31.48 36.6526 31.6533 35.9592 32C35.2659 32.3467 34.7726 32.9733 34.4792 33.88C34.2126 34.7867 34.0792 36.0933 34.0792 37.8C34.0792 39.6133 34.2526 41.0133 34.5992 42C34.9459 42.9867 35.5192 43.6667 36.3192 44.04C37.1192 44.3867 38.1859 44.56 39.5192 44.56C40.5059 44.56 41.6392 44.52 42.9192 44.44C44.2259 44.36 45.4792 44.2533 46.6792 44.12L47.1592 47.2C46.4392 47.4933 45.6126 47.7333 44.6792 47.92C43.7459 48.1067 42.7726 48.24 41.7592 48.32C40.7726 48.4267 39.8392 48.48 38.9592 48.48C36.5592 48.48 34.6259 48.1333 33.1592 47.44C31.7192 46.72 30.6659 45.6 29.9992 44.08C29.3592 42.56 29.0392 40.6 29.0392 38.2C29.0392 35.6133 29.3592 33.5733 29.9992 32.08C30.6659 30.56 31.7059 29.48 33.1192 28.84C34.5592 28.2 36.4126 27.88 38.6792 27.88ZM56.8295 20V42.08C56.8295 42.8267 57.0429 43.4 57.4695 43.8C57.8962 44.1733 58.5095 44.36 59.3095 44.36H61.0295L61.5895 47.76C61.2962 47.8933 60.8829 48.0133 60.3495 48.12C59.8429 48.2267 59.3095 48.2933 58.7495 48.32C58.2162 48.3733 57.7495 48.4 57.3495 48.4C55.7229 48.4 54.4295 47.96 53.4695 47.08C52.5095 46.2 52.0295 44.9333 52.0295 43.28V20H56.8295ZM73.3667 27.88C76.5401 27.88 78.8201 28.44 80.2067 29.56C81.5934 30.6533 82.3001 32.28 82.3267 34.44C82.3534 36.2267 81.9267 37.5867 81.0467 38.52C80.1934 39.4267 78.7667 39.88 76.7667 39.88H65.5667V36.88H75.4467C76.3534 36.88 76.9267 36.64 77.1667 36.16C77.4334 35.68 77.5667 35.0933 77.5667 34.4C77.5401 33.3067 77.2201 32.5467 76.6067 32.12C76.0201 31.6933 75.0067 31.48 73.5667 31.48C72.3134 31.48 71.3401 31.6533 70.6467 32C69.9534 32.3467 69.4601 32.9733 69.1667 33.88C68.9001 34.7867 68.7667 36.0933 68.7667 37.8C68.7667 39.6133 68.9401 41.0133 69.2867 42C69.6334 42.9867 70.2067 43.6667 71.0067 44.04C71.8067 44.3867 72.8734 44.56 74.2067 44.56C75.1934 44.56 76.3267 44.52 77.6067 44.44C78.9134 44.36 80.1667 44.2533 81.3667 44.12L81.8467 47.2C81.1267 47.4933 80.3001 47.7333 79.3667 47.92C78.4334 48.1067 77.4601 48.24 76.4467 48.32C75.4601 48.4267 74.5267 48.48 73.6467 48.48C71.2467 48.48 69.3134 48.1333 67.8467 47.44C66.4067 46.72 65.3534 45.6 64.6867 44.08C64.0467 42.56 63.7267 40.6 63.7267 38.2C63.7267 35.6133 64.0467 33.5733 64.6867 32.08C65.3534 30.56 66.3934 29.48 67.8067 28.84C69.2467 28.2 71.1001 27.88 73.3667 27.88ZM111.157 27.88C112.89 27.88 114.21 28.3467 115.117 29.28C116.05 30.1867 116.517 31.52 116.517 33.28V48H111.717V34.76C111.69 33.7733 111.49 33.0667 111.117 32.64C110.744 32.1867 110.09 31.96 109.157 31.96C108.597 31.96 108.05 32.0533 107.517 32.24C107.01 32.4 106.437 32.6667 105.797 33.04C105.157 33.4133 104.384 33.9067 103.477 34.52L103.197 31.6C104.557 30.3467 105.864 29.4133 107.117 28.8C108.397 28.1867 109.744 27.88 111.157 27.88ZM90.557 28.36L91.037 32.2L91.517 32.76V48H86.677V28.36H90.557ZM98.637 27.88C100.344 27.88 101.65 28.3333 102.557 29.24C103.464 30.1467 103.917 31.4933 103.917 33.28V48H99.277V34.76C99.277 33.72 99.0637 33 98.637 32.6C98.2104 32.1733 97.5704 31.96 96.717 31.96C96.1837 31.96 95.6504 32.04 95.117 32.2C94.5837 32.36 93.997 32.6267 93.357 33C92.717 33.3733 91.917 33.88 90.957 34.52L90.677 31.6C92.0104 30.3467 93.317 29.4133 94.597 28.8C95.877 28.1867 97.2237 27.88 98.637 27.88ZM130.593 27.88C133.767 27.88 136.047 28.44 137.433 29.56C138.82 30.6533 139.527 32.28 139.553 34.44C139.58 36.2267 139.153 37.5867 138.273 38.52C137.42 39.4267 135.993 39.88 133.993 39.88H122.793V36.88H132.673C133.58 36.88 134.153 36.64 134.393 36.16C134.66 35.68 134.793 35.0933 134.793 34.4C134.767 33.3067 134.447 32.5467 133.833 32.12C133.247 31.6933 132.233 31.48 130.793 31.48C129.54 31.48 128.567 31.6533 127.873 32C127.18 32.3467 126.687 32.9733 126.393 33.88C126.127 34.7867 125.993 36.0933 125.993 37.8C125.993 39.6133 126.167 41.0133 126.513 42C126.86 42.9867 127.433 43.6667 128.233 44.04C129.033 44.3867 130.1 44.56 131.433 44.56C132.42 44.56 133.553 44.52 134.833 44.44C136.14 44.36 137.393 44.2533 138.593 44.12L139.073 47.2C138.353 47.4933 137.527 47.7333 136.593 47.92C135.66 48.1067 134.687 48.24 133.673 48.32C132.687 48.4267 131.753 48.48 130.873 48.48C128.473 48.48 126.54 48.1333 125.073 47.44C123.633 46.72 122.58 45.6 121.913 44.08C121.273 42.56 120.953 40.6 120.953 38.2C120.953 35.6133 121.273 33.5733 121.913 32.08C122.58 30.56 123.62 29.48 125.033 28.84C126.473 28.2 128.327 27.88 130.593 27.88ZM150.384 22.76V42.08C150.384 42.9067 150.557 43.4933 150.904 43.84C151.277 44.1867 151.904 44.36 152.784 44.36H155.504L156.024 47.76C155.57 47.8933 155.024 48.0133 154.384 48.12C153.744 48.2267 153.117 48.2933 152.504 48.32C151.89 48.3733 151.37 48.4 150.944 48.4C149.237 48.4 147.904 47.9467 146.944 47.04C146.01 46.1067 145.544 44.7733 145.544 43.04V22.76H150.384ZM156.224 28.36V31.72H142.064V28.56L145.904 28.36H156.224ZM163.562 28.36L164.202 32.2L164.642 32.76V48H159.802V28.36H163.562ZM173.162 27.88L172.682 32.36H171.282C170.242 32.36 169.189 32.5333 168.122 32.88C167.055 33.2267 165.722 33.7467 164.122 34.44L163.802 31.6C165.189 30.4267 166.602 29.52 168.042 28.88C169.482 28.2133 170.869 27.88 172.202 27.88H173.162ZM195.203 28.36L187.843 48.6C187.496 49.5333 187.056 50.4533 186.523 51.36C186.016 52.2933 185.363 53.1333 184.563 53.88C183.763 54.6267 182.816 55.2133 181.723 55.64C180.629 56.0667 179.363 56.2267 177.923 56.12L177.523 53.24C179.123 52.7867 180.363 52.1733 181.243 51.4C182.149 50.6267 182.856 49.64 183.363 48.44L184.443 45.88C184.683 45.2933 184.909 44.6267 185.123 43.88C185.363 43.1067 185.563 42.44 185.723 41.88L190.003 28.36H195.203ZM179.363 28.36L183.723 41.88C183.856 42.3333 183.976 42.8 184.083 43.28C184.189 43.7333 184.283 44.1867 184.363 44.64H185.363L183.843 48H182.563C182.189 48 181.856 47.8933 181.563 47.68C181.269 47.4667 181.069 47.1733 180.963 46.8L174.203 28.36H179.363ZM209.035 19.88C211.008 19.88 212.675 20.1333 214.035 20.64C215.395 21.12 216.488 21.92 217.315 23.04C218.142 24.1333 218.742 25.6 219.115 27.44C219.488 29.28 219.675 31.5333 219.675 34.2C219.675 36.8667 219.488 39.12 219.115 40.96C218.742 42.8 218.142 44.28 217.315 45.4C216.488 46.4933 215.395 47.2933 214.035 47.8C212.675 48.28 211.008 48.52 209.035 48.52C207.062 48.52 205.395 48.28 204.035 47.8C202.675 47.2933 201.582 46.4933 200.755 45.4C199.928 44.28 199.315 42.8 198.915 40.96C198.542 39.12 198.355 36.8667 198.355 34.2C198.355 31.5333 198.542 29.28 198.915 27.44C199.315 25.6 199.928 24.1333 200.755 23.04C201.582 21.92 202.675 21.12 204.035 20.64C205.395 20.1333 207.062 19.88 209.035 19.88ZM209.035 22.24C207.062 22.24 205.488 22.6267 204.315 23.4C203.168 24.1467 202.355 25.3867 201.875 27.12C201.395 28.8533 201.155 31.2133 201.155 34.2C201.155 37.1867 201.395 39.5467 201.875 41.28C202.355 43.0133 203.168 44.2667 204.315 45.04C205.488 45.7867 207.062 46.16 209.035 46.16C211.008 46.16 212.568 45.7867 213.715 45.04C214.862 44.2667 215.675 43.0133 216.155 41.28C216.662 39.5467 216.915 37.1867 216.915 34.2C216.915 31.2133 216.662 28.8533 216.155 27.12C215.675 25.3867 214.862 24.1467 213.715 23.4C212.568 22.6267 211.008 22.24 209.035 22.24ZM233.435 19.92C234.742 19.9467 236.062 20.0133 237.395 20.12C238.729 20.2267 240.062 20.4 241.395 20.64L241.195 22.56C240.022 22.48 238.769 22.4133 237.435 22.36C236.102 22.3067 234.809 22.28 233.555 22.28C232.462 22.28 231.515 22.32 230.715 22.4C229.942 22.48 229.302 22.6667 228.795 22.96C228.289 23.2533 227.915 23.7333 227.675 24.4C227.462 25.0667 227.355 26 227.355 27.2C227.355 28.9067 227.649 30.12 228.235 30.84C228.822 31.5333 229.795 32.0133 231.155 32.28L236.955 33.48C239.035 33.9067 240.475 34.72 241.275 35.92C242.102 37.12 242.515 38.8267 242.515 41.04C242.515 42.6667 242.329 43.9733 241.955 44.96C241.582 45.92 241.022 46.6533 240.275 47.16C239.555 47.6667 238.635 48.0133 237.515 48.2C236.395 48.3867 235.075 48.48 233.555 48.48C232.595 48.48 231.409 48.44 229.995 48.36C228.582 48.28 226.969 48.0933 225.155 47.8L225.355 45.88C226.715 45.9333 227.849 45.9867 228.755 46.04C229.689 46.0667 230.529 46.0933 231.275 46.12C232.022 46.12 232.809 46.12 233.635 46.12C235.182 46.0933 236.409 45.96 237.315 45.72C238.222 45.48 238.862 45 239.235 44.28C239.635 43.56 239.835 42.4667 239.835 41C239.835 39.8 239.702 38.8667 239.435 38.2C239.195 37.5067 238.782 36.9867 238.195 36.64C237.635 36.2667 236.902 36 235.995 35.84L230.115 34.6C228.142 34.2 226.742 33.4 225.915 32.2C225.115 30.9733 224.715 29.2933 224.715 27.16C224.715 25.5333 224.889 24.24 225.235 23.28C225.609 22.2933 226.142 21.56 226.835 21.08C227.555 20.6 228.462 20.2933 229.555 20.16C230.649 20 231.942 19.92 233.435 19.92Z" fill="black"/>
</g>
<defs>
<clipPath id="clip0_85_5">
<rect width="256" height="64" fill="white"/>
</clipPath>
</defs>
</svg>
